PathFileType	4	(X/Y/Z)	pose_F01_0-95.trc
DataRate	CameraRate	NumFrames	NumMarkers	Units	OrigDataRate	OrigDataStartFrame	OrigNumFrames
30	30	8	21	m	30	59	95
Frame#	Time	CHip			RHip			RKnee			RAnkle			RBigToe			RSmallToe			RHeel			LHip			LKnee			LAnkle			LBigToe			LSmallToe			LHeel			Neck			Nose			RShoulder			RElbow			RWrist			LShoulder			LElbow			LWrist			
		X1	Y1	Z1	X2	Y2	Z2	X3	Y3	Z3	X4	Y4	Z4	X5	Y5	Z5	X6	Y6	Z6	X7	Y7	Z7	X8	Y8	Z8	X9	Y9	Z9	X10	Y10	Z10	X11	Y11	Z11	X12	Y12	Z12	X13	Y13	Z13	X14	Y14	Z14	X15	Y15	Z15	X16	Y16	Z16	X17	Y17	Z17	X18	Y18	Z18	X19	Y19	Z19	X20	Y20	Z20	X21	Y21	Z21	
59	1.9666666666666666	-0.24199897783755397	1.8911819774719543	-0.4589758562825594	-0.2582243986152216	1.8880517759997182	-0.4089250481983064	-0.27808889307855045	1.7438298468422875	-0.3818449682769654													-0.22707042611171918	1.892181753279639	-0.5064969173878024	-0.2336103561274149	1.7510378505216304	-0.45983384297314667	-0.2253502671904718	1.577989902311958	-0.42598341480450597	-0.23297932310735212	1.561609456226482	-0.49006873929706174	-0.22200524242274813	1.5669494696631225	-0.49817429077490794	-0.22898563538360586	1.5765946659049777	-0.38549589763735126	-0.2304297722938506	2.0479431896817153	-0.4691500469426795	-0.21850239469443772	2.097750034248236	-0.5548892759944315	-0.2527242396316745	2.0527373423448756	-0.401225204035719	-0.26699582156613366	1.9718207228159041	-0.344764843878109	-0.2831136130263966	1.8995188274261032	-0.3510500618351264	-0.20857592584160675	2.0448263219095826	-0.527546965216926	-0.2058101924845785	1.9878060974835412	-0.5956820143614954	-0.2169451176275404	2.0535485805896525	-0.5936365746645055
60	2.0	-0.24185932974992044	1.8883526750890571	-0.4584487102742624	-0.2559028450731353	1.8881334139731987	-0.402261783594944	-0.27823198654744574	1.7398300668292965	-0.3765552568221728													-0.22871938238733824	1.8905036515225648	-0.5125162996141255	-0.23262907402833274	1.7394407491094646	-0.4591358979188123	-0.2253502671904718	1.577989902311958	-0.42598341480450597	-0.23297932310735212	1.561609456226482	-0.49006873929706174	-0.22200524242274813	1.5669494696631225	-0.49817429077490794	-0.22898563538360586	1.5765946659049777	-0.38549589763735126	-0.22944657811063404	2.0476787520086517	-0.4660611543052884	-0.21649635647226229	2.0978115497966963	-0.5569831716376973	-0.24961625228243964	2.049863820079771	-0.39111094646475525	-0.2670029817209929	1.9677196378920236	-0.34369817127262425	-0.2801495118107126	1.8937239453729786	-0.33437561637825397	-0.20641760574073698	2.0437258539426097	-0.5285683329751406	-0.2071196613950063	1.984112074334458	-0.5900181159198519	-0.2161776765762757	2.0506888650838975	-0.5902022890093958
61	2.033333333333333	-0.2428514931046364	1.8868532899843322	-0.44413185561387325	-0.2576487967580301	1.8866276839767357	-0.3911775035657355	-0.2802338182921331	1.7381839179182013	-0.3740128751646125													-0.2278981252867892	1.8893395259748875	-0.5005053489659768	-0.23460186929600327	1.7421832053121638	-0.4575246237694059	-0.2253502671904718	1.577989902311958	-0.42598341480450597	-0.23297932310735212	1.561609456226482	-0.49006873929706174	-0.22200524242274813	1.5669494696631225	-0.49817429077490794	-0.22898563538360586	1.5765946659049777	-0.38549589763735126	-0.22935921867075715	2.0472123356784264	-0.4575512377040567	-0.2156018873479911	2.097671844569831	-0.5539622675515821	-0.2493400872664671	2.0495932249307502	-0.3827175147148133	-0.26478186356609495	1.9677015296258675	-0.3370859901444949	-0.2778447531722379	1.8939402282868165	-0.3276556835533339	-0.2074337514234963	2.039785061287361	-0.5222938726741255	-0.20916561593080202	1.9839000072510082	-0.5877119025075828	-0.21802918627435453	2.0529007370459644	-0.5876119583237044
62	2.066666666666667	-0.24164832691744026	1.8872756810259619	-0.44085271828480055	-0.2553780661724683	1.8868118127367017	-0.3847617305349352	-0.2802338182921331	1.7381839179182013	-0.3740128751646125													-0.2258435176564171	1.8897909009413099	-0.4941174799433557	-0.23625070544781518	1.739042390032196	-0.4552376169636507	-0.2253502671904718	1.577989902311958	-0.42598341480450597	-0.23297932310735212	1.561609456226482	-0.49006873929706174	-0.22200524242274813	1.5669494696631225	-0.49817429077490794	-0.22898563538360586	1.5765946659049777	-0.38549589763735126	-0.22836912382631638	2.0470491984720063	-0.4543710665652218	-0.21554529260581998	2.097861722860046	-0.5539377879594841	-0.24937320606865035	2.048575015696124	-0.3825459414611068	-0.2642503886659174	1.9661083761844882	-0.32786602885609156	-0.2783050067169368	1.8893359404427543	-0.3214697349546038	-0.20830305446324465	2.038596741613715	-0.5248607159872128	-0.21355845841684556	1.9809218968139615	-0.5831608031358795	-0.219246790390871	2.0528011745878856	-0.5824309932996626
63	2.1	-0.24295712300469557	1.885056486308304	-0.4351136496256913	-0.25755108623642975	1.8843690714858656	-0.38212693113812657	-0.2802338182921331	1.7381839179182013	-0.3740128751646125													-0.22819479957538039	1.8862113518620032	-0.4914113468867536	-0.2362638365781162	1.7398226115974749	-0.4550620046544436	-0.2253502671904718	1.577989902311958	-0.42598341480450597	-0.23297932310735212	1.561609456226482	-0.49006873929706174	-0.22200524242274813	1.5669494696631225	-0.49817429077490794	-0.22898563538360586	1.5765946659049777	-0.38549589763735126	-0.22836394164428742	2.0470342462877498	-0.4543504642341106	-0.2166160118876554	2.097687978705482	-0.5487766652509217	-0.24831992594102809	2.047094667537324	-0.37879880522197334	-0.26211498118062304	1.9645550211030904	-0.32122470430783334	-0.275107313467569	1.8891161487360988	-0.31142611332663794	-0.20651189331429173	2.0423571935382014	-0.528766175252466	-0.21470211192771121	1.9822045875752192	-0.5778007308426494	-0.22241641357771333	2.053725118342594	-0.5746850744752906
64	2.1333333333333333	-0.24280443872221194	1.8860430963708883	-0.43510267070601855	-0.2563901456474629	1.885426119442459	-0.3790798379372839	-0.2802338182921331	1.7381839179182013	-0.3740128751646125													-0.22720569219554812	1.888325549931708	-0.48865309544539454	-0.23627332889674924	1.7396167563809872	-0.455116561804088	-0.2253502671904718	1.577989902311958	-0.42598341480450597	-0.23297932310735212	1.561609456226482	-0.49006873929706174	-0.22200524242274813	1.5669494696631225	-0.49817429077490794	-0.22898563538360586	1.5765946659049777	-0.38549589763735126	-0.2264042022440546	2.0431248496116807	-0.4468271696343595	-0.21569295711730208	2.097526276260492	-0.5456391515309029	-0.24836955114649276	2.045956346169984	-0.3788167090865872	-0.2591291011211118	1.9655997402548107	-0.32006206893228756	-0.2727276996258153	1.891102228219805	-0.304748957544637	-0.20655632012014657	2.036917882360315	-0.518628935652502	-0.2167982748131759	1.9830391011240107	-0.5757943709775459	-0.2268426776864752	2.0506878294104	-0.5710050254034197
65	2.1666666666666665	-0.242646591494561	1.8848889439538161	-0.4347657314356965	-0.254336065481654	1.8833442051908689	-0.38048374251006434	-0.2802338182921331	1.7381839179182013	-0.3740128751646125													-0.22700016491974156	1.8857977309234022	-0.4880447183557986	-0.23637901790414118	1.7398212895755871	-0.45043418230487053	-0.2253502671904718	1.577989902311958	-0.42598341480450597	-0.23297932310735212	1.561609456226482	-0.49006873929706174	-0.22200524242274813	1.5669494696631225	-0.49817429077490794	-0.22898563538360586	1.5765946659049777	-0.38549589763735126	-0.2235978385125899	2.040594216414302	-0.44550199021169135	-0.2167305400549491	2.0973511218376055	-0.5404054694065016	-0.24653090723096677	2.047240632307865	-0.3814686752324623	-0.2590676134503682	1.9655650392866157	-0.32000341109649705	-0.2703456271640174	1.888043078266935	-0.29767656264557374	-0.20472461732690417	2.0332434808138395	-0.5204118331515099	-0.21683903203625005	1.9823431069443476	-0.575812814024807	-0.23139396985294036	2.05163387960855	-0.5680724460521391
66	2.2	-0.24435989865410465	1.882242197221758	-0.43201522462479497	-0.25612459019449335	1.8790696530115623	-0.37762993040818466	-0.2802338182921331	1.7381839179182013	-0.3740128751646125													-0.22694952808144092	1.8844237309651939	-0.4876620767972101	-0.23648470691153312	1.7400258227701868	-0.445751802805653	-0.2253502671904718	1.577989902311958	-0.42598341480450597	-0.23297932310735212	1.561609456226482	-0.49006873929706174	-0.22200524242274813	1.5669494696631225	-0.49817429077490794	-0.22898563538360586	1.5765946659049777	-0.38549589763735126	-0.22548148974502882	2.0405465527138293	-0.4432596605855252	-0.21777669226719085	2.0970298709549686	-0.5351238822042153	-0.24733863984328727	2.0457175669302106	-0.37573443976799353	-0.25810889624430106	1.9629724696249908	-0.31639647714329133	-0.2702100247103821	1.8871313080189456	-0.29732476670714236	-0.20563748949974717	2.0330620594951228	-0.5144965949643482	-0.21884269979338855	1.9857126466433477	-0.5738654483656133	-0.23594526201940555	2.0525799298067	-0.5651398667008585
